<svg id="Layer_1" data-name="Layer 1" xmlns="http://www.w3.org/2000/svg" viewBox="0 0 416 406"><defs><style>.cls-1{fill:#32d0fb;}.cls-2,.cls-3{fill:none;stroke-miterlimit:10;stroke-width:16px;}.cls-2{stroke:#fff;}.cls-3{stroke:#61dafb;}.cls-4{fill:#fff;}</style></defs><title>Artboard 1</title><rect class="cls-1" x="104" y="54" width="312" height="318" rx="17.21" ry="17.21"/><rect class="cls-2" x="67.77" y="75" width="309.23" height="277"/><line class="cls-3" x1="142" y1="75" x2="142" y2="352"/><line class="cls-2" x1="299" y1="75" x2="299" y2="352"/><line class="cls-2" x1="377" y1="352" x2="377" y2="75"/><line class="cls-2" x1="58" y1="112" x2="377" y2="112"/><line class="cls-2" x1="58" y1="147" x2="377" y2="147"/><line class="cls-2" x1="58" y1="182" x2="377" y2="182"/><line class="cls-2" x1="58" y1="217" x2="377" y2="217"/><line class="cls-2" x1="67.77" y1="252" x2="377" y2="252"/><line class="cls-2" x1="67.77" y1="287" x2="377" y2="287"/><line class="cls-2" x1="67.77" y1="319" x2="377" y2="319"/><polygon class="cls-1" points="242.5 406 223.85 406 0 377 0 43 216.28 0 242.5 0 242.5 406"/><path class="cls-4" d="M219,204.2c0-16.85-20.77-32.13-51-40.52,6.8-31.79,3.76-56.54-9.38-63.07a17.71,17.71,0,0,0-10.17-1.55v10.73a9.39,9.39,0,0,1,5.15.73c6.22,3.17,9,17.42,6.82,36.23-.51,4.61-1.34,9.48-2.35,14.44a197.68,197.68,0,0,0-28.24-3.82,203.38,203.38,0,0,0-17.58-22.2c13.72-15.31,27-24.47,36.24-25.43V99h0c-12.19,1.41-27.66,12.34-42.78,29.53-14.61-14-28.59-21.14-39-19.94v9.77c7.78-.8,19.6,5.39,32.51,17.88A230.16,230.16,0,0,0,83,159.82a157.41,157.41,0,0,0-23.93,6c-.84-4.3-1.46-8.47-1.9-12.48-1.71-16.41.4-29.46,5.35-33.39a7.82,7.82,0,0,1,4.26-1.57v-9.78h0A16,16,0,0,0,58.45,112c-10.13,8.08-12.37,29.9-7.2,56.77C29.53,177.77,16,190.86,16,204.2s13.6,26.51,35.4,35.45c-5.14,27-2.86,48.85,7.31,56.93A15.78,15.78,0,0,0,67,300c10.38,1.19,24.36-6,39-20.12,15.13,17.1,30.61,27.94,42.81,29.34a18,18,0,0,0,10.28-1.55c13.1-6.53,16.09-31.24,9.24-63C198.33,236.29,219,221,219,204.2Zm-63.49-32.36c-1.69,6.31-3.78,12.79-6.12,19.25-1.84-3.82-3.77-7.62-5.86-11.4s-4.2-7.42-6.36-11C143.44,169.49,149.57,170.51,155.51,171.84Zm-20.43,51.24c-3.39,6.31-6.84,12.24-10.4,17.7-6.3.34-12.6.4-18.85.14s-12.16-.83-18-1.62c-3.23-5.46-6.37-11.23-9.37-17.27q-4.35-8.81-7.89-17.7c2.34-5.92,5-11.87,7.85-17.73,3-6.09,6.1-11.91,9.34-17.37,5.87-.82,11.91-1.4,18.07-1.65s12.51-.2,18.77.1q5.33,8.17,10.43,17.6c3.33,6.16,6.37,12.47,9.17,18.87C141.4,210.56,138.36,216.91,135.08,223.08Zm14.31-6c2.44,6.51,4.52,13,6.25,19.4a183.68,183.68,0,0,1-18.42,3.15c2.15-3.58,4.31-7.28,6.35-11.09S147.55,220.94,149.39,217.12Zm-43.48,48.36q-5.67-7-11.21-15.29c3.6.37,7.31.71,11.09.91s7.7.33,11.5.3A163.54,163.54,0,0,1,105.91,265.48ZM76.55,237.29a149.21,149.21,0,0,1-15.35-4c1.36-5.57,3.06-11.34,5-17.12,1.53,3.53,3.14,7.08,4.91,10.64S74.69,233.85,76.55,237.29Zm29.16-94.35A167.86,167.86,0,0,1,117.2,157c-3.75,0-7.56.08-11.37.28s-7.57.5-11.21.93C98.22,152.7,102,147.59,105.71,142.94Zm-29.2,28.17c-1.86,3.48-3.72,7-5.45,10.66s-3.34,7.11-4.87,10.65c-2-5.83-3.7-11.64-5.1-17.26C65.93,173.63,71.1,172.25,76.51,171.11ZM43.37,225.76c-12.27-6.67-20-15-20-21.56s7.74-14.94,20-21.56A103.73,103.73,0,0,1,53.23,178a233.11,233.11,0,0,0,8.19,26.27,227.79,227.79,0,0,0-8.08,26.13A99.27,99.27,0,0,1,43.37,225.76Zm19.38,62.86c-5-3.89-7.13-16.95-5.46-33.37.4-4.05,1.06-8.31,1.86-12.65a162.94,162.94,0,0,0,23.9,6,235.38,235.38,0,0,0,16.42,23.64c-12.93,12.58-24.71,18.82-32.53,18A8.6,8.6,0,0,1,62.75,288.62Zm97.85-27.2c2.17,18.82-.51,33.08-6.69,36.3a9,9,0,0,1-5.2.72c-9.21-.95-22.53-10.07-36.26-25.29A195.43,195.43,0,0,0,129.91,251a190.82,190.82,0,0,0,28.3-3.87C159.26,252.09,160.09,256.86,160.6,261.42Zm18.1-32.05a137.56,137.56,0,0,1-13.09,4.6,246.27,246.27,0,0,0-10.38-29.86,243.59,243.59,0,0,0,10.24-29.72A139.74,139.74,0,0,1,178.75,179c17.29,7.18,28.81,17.12,28.81,25.16S196,222.23,178.7,229.37Z"/><path class="cls-4" d="M105.79,183.23c10.43-.25,19.06,9.13,19.06,21s-8.63,21.23-19.06,21c-10.19-.24-18.27-9.63-18.27-21S95.6,183.47,105.79,183.23Z"/><rect class="cls-4" x="377" y="67" width="27" height="293"/></svg>