<svg id="Layer_1" data-name="Layer 1" xmlns="http://www.w3.org/2000/svg" viewBox="0 0 416 406"><defs><style>.cls-1{fill:#32d0fb;}.cls-2,.cls-3{fill:none;stroke-miterlimit:10;stroke-width:16px;}.cls-2{stroke:#fff;}.cls-3{stroke:#61dafb;}.cls-4{fill:#fff;}</style></defs><title>Artboard 1</title><rect class="cls-1" x="104" y="54" width="312" height="318" rx="17.21" ry="17.21"/><rect class="cls-2" x="67.77" y="75" width="309.23" height="277"/><line class="cls-3" x1="142" y1="75" x2="142" y2="352"/><line class="cls-2" x1="299" y1="75" x2="299" y2="352"/><line class="cls-2" x1="377" y1="352" x2="377" y2="75"/><line class="cls-2" x1="58" y1="112" x2="377" y2="112"/><line class="cls-2" x1="58" y1="147" x2="377" y2="147"/><line class="cls-2" x1="58" y1="182" x2="377" y2="182"/><line class="cls-2" x1="58" y1="217" x2="377" y2="217"/><line class="cls-2" x1="67.77" y1="252" x2="377" y2="252"/><line class="cls-2" x1="67.77" y1="287" x2="377" y2="287"/><line class="cls-2" x1="67.77" y1="319" x2="377" y2="319"/><rect class="cls-4" x="377" y="67" width="27" height="293"/><polygon class="cls-1" points="0 366.46 217 406 217 0 0 39.54 0 366.46"/><path class="cls-4" d="M198,204.45c0-15.65-18-30-44.48-38.19,6-29.79,3.33-53.12-8.31-59.61a15.27,15.27,0,0,0-9.08-1.75v10.16a8.11,8.11,0,0,1,4.6.81c5.54,3.14,8,16.64,6.07,34.33-.45,4.35-1.19,8.93-2.08,13.6a169.26,169.26,0,0,0-25.31-4,197.87,197.87,0,0,0-16-21.44c12.46-14.31,24.43-22.7,32.72-23.37V104.85h0c-10.93,1-24.92,11-38.69,27.05-13.42-13.74-26.36-21-36-20.11v9.46c7.26-.59,18.21,5.64,30.11,17.91a216.23,216.23,0,0,0-15,22.39,141.14,141.14,0,0,0-22.32,5.54c-.79-4.18-1.37-8.24-1.78-12.13-1.6-16,.38-28.56,5-32.25a7.12,7.12,0,0,1,4-1.42v-9.46h0a14.36,14.36,0,0,0-7.81,3.07c-9.54,7.59-11.65,28.76-6.78,55-20.59,8.54-33.55,21.26-33.55,34.35s13,25.92,33.69,34.48c-4.85,26.28-2.7,47.5,6.88,55.12a14.16,14.16,0,0,0,7.78,3.08c9.67.91,22.61-6.39,36-20.18,13.78,16,27.78,26,38.71,27a15.52,15.52,0,0,0,9.16-1.72c11.61-6.47,14.25-29.75,8.2-59.48C180.1,234.38,198,220.05,198,204.45Zm-55.6-30.63c-1.51,5.94-3.37,12.06-5.46,18.15-1.65-3.62-3.37-7.23-5.25-10.83s-3.77-7.07-5.7-10.44A160.33,160.33,0,0,1,142.4,173.82Zm-18.3,48.46c-3.06,6-6.17,11.66-9.38,16.88a169.66,169.66,0,0,1-17.17.29c-5.61-.19-11.16-.69-16.54-1.4-3-5.23-5.9-10.77-8.68-16.58-2.7-5.65-5.13-11.35-7.34-17.07,2.17-5.71,4.64-11.45,7.3-17.09,2.79-5.84,5.66-11.42,8.65-16.64a160.75,160.75,0,0,1,16.61-1.4c5.68-.18,11.41-.06,17.09.3,3.21,5.22,6.36,10.84,9.42,16.81s5.72,11.87,8.23,17.94C129.78,210.38,127.05,216.41,124.1,222.28Zm12.84-5.7c2.17,6.15,4,12.32,5.58,18.31A157.22,157.22,0,0,1,126,238c1.93-3.41,3.87-6.93,5.7-10.56S135.29,220.2,136.94,216.58ZM97.63,263q-5.19-6.61-10.28-14.51c3.3.32,6.7.6,10.17.75s7,.23,10.48.16A155.69,155.69,0,0,1,97.63,263ZM70.55,236.2a136.52,136.52,0,0,1-14.32-3.8c1.27-5.41,2.86-11,4.67-16.6,1.43,3.41,2.93,6.83,4.58,10.27S68.82,232.9,70.55,236.2Zm26.89-90.51a163,163,0,0,1,10.49,13.62c-3.42,0-6.89,0-10.38.12s-6.93.38-10.28.73C90.58,154.92,94,150.08,97.44,145.69ZM70.52,172.37c-1.73,3.34-3.46,6.75-5.08,10.24s-3.11,6.85-4.54,10.26c-1.87-5.65-3.47-11.28-4.78-16.74A146.63,146.63,0,0,1,70.52,172.37Zm-31.1,52.86c-11.65-6.46-19-14.63-19-21s7.39-14.59,19-21a95.82,95.82,0,0,1,9.32-4.41,233.16,233.16,0,0,0,7.69,25.51,226.33,226.33,0,0,0-7.59,25.36A93.59,93.59,0,0,1,39.42,225.23ZM57.68,286c-4.68-3.66-6.7-16.29-5.13-32.23.38-3.94,1-8.07,1.75-12.29A147.45,147.45,0,0,0,76.58,247a224.94,224.94,0,0,0,15.14,22.49c-11.9,12.31-22.83,18.57-30.12,18A7.54,7.54,0,0,1,57.68,286Zm89.24-27.66c1.93,17.7-.45,31.19-5.94,34.37a7.67,7.67,0,0,1-4.65.8c-8.25-.69-20.26-9.07-32.73-23.32a192.46,192.46,0,0,0,15.85-21.36,161.67,161.67,0,0,0,25.35-4C145.74,249.55,146.47,254,146.92,258.34Zm16-30.32a118.1,118.1,0,0,1-11.56,4.4,242.35,242.35,0,0,0-9.22-28.14,236.15,236.15,0,0,0,9.09-28A120.62,120.62,0,0,1,163,180.79c15.14,6.84,25.15,16.15,25.15,23.65S178.06,221.27,162.93,228Z"/><path class="cls-4" d="M97.52,184.25c9.51-.17,17.35,8.82,17.35,20.09s-7.84,20.24-17.35,20c-9.35-.19-16.8-9.19-16.8-20.1S88.17,184.41,97.52,184.25Z"/><rect class="cls-1" x="217" width="19" height="406"/></svg>